<svg xmlns="http://www.w3.org/2000/svg" id="dots" viewBox="0 0 12500 12500" style="background-color: #ffffff"><g transform="scale(25)">
<rect width="74" height="35" fill="#ffffff"/>
<g transform="translate(0.25, 0.17949192431122896)">
  <circle cx="4.5" cy="0" r="0.16" fill="#A12168"/>
<circle cx="13.5" cy="0" r="0.16" fill="#A12168"/>
<circle cx="14.5" cy="0" r="0.16" fill="#A12168"/>
<circle cx="17.5" cy="0" r="0.16" fill="#A12168"/>
<circle cx="19.5" cy="0" r="0.16" fill="#A12168"/>
<circle cx="20.5" cy="0" r="0.16" fill="#A12168"/>
<circle cx="21.5" cy="0" r="0.16" fill="#A12168"/>
<circle cx="26.5" cy="0" r="0.16" fill="#A12168"/>
<circle cx="27.5" cy="0" r="0.16" fill="#A12168"/>
<circle cx="28.5" cy="0" r="0.16" fill="#A12168"/>
<circle cx="29.5" cy="0" r="0.16" fill="#A12168"/>
<circle cx="30.5" cy="0" r="0.16" fill="#A12168"/>
<circle cx="31.5" cy="0" r="0.16" fill="#A12168"/>
<circle cx="42.5" cy="0" r="0.16" fill="#A12168"/>
<circle cx="48.5" cy="0" r="0.16" fill="#A12168"/>
<circle cx="51.5" cy="0" r="0.16" fill="#A12168"/>
<circle cx="52.5" cy="0" r="0.16" fill="#A12168"/>
<circle cx="53.5" cy="0" r="0.16" fill="#A12168"/>
<circle cx="54.5" cy="0" r="0.16" fill="#A12168"/>
<circle cx="55.5" cy="0" r="0.16" fill="#A12168"/>
<circle cx="56.5" cy="0" r="0.16" fill="#A12168"/>
<circle cx="57.5" cy="0" r="0.16" fill="#A12168"/>
<circle cx="58.5" cy="0" r="0.16" fill="#A12168"/>
<circle cx="59.5" cy="0" r="0.16" fill="#A12168"/>
<circle cx="60.5" cy="0" r="0.16" fill="#A12168"/>
<circle cx="61.5" cy="0" r="0.16" fill="#A12168"/>
<circle cx="62.5" cy="0" r="0.16" fill="#A12168"/>
<circle cx="63.5" cy="0" r="0.16" fill="#A12168"/>
<circle cx="64.5" cy="0" r="0.16" fill="#A12168"/>
<circle cx="65.5" cy="0" r="0.16" fill="#A12168"/>
<circle cx="66.5" cy="0" r="0.16" fill="#A12168"/>
<circle cx="67.5" cy="0" r="0.16" fill="#A12168"/>
<circle cx="68.5" cy="0" r="0.16" fill="#A12168"/>
<circle cx="69.5" cy="0" r="0.16" fill="#A12168"/>
<circle cx="4" cy="0.8660254037844386" r="0.16" fill="#A12168"/>
<circle cx="5" cy="0.8660254037844386" r="0.16" fill="#A12168"/>
<circle cx="6" cy="0.8660254037844386" r="0.16" fill="#A12168"/>
<circle cx="7" cy="0.8660254037844386" r="0.16" fill="#A12168"/>
<circle cx="8" cy="0.8660254037844386" r="0.16" fill="#A12168"/>
<circle cx="10" cy="0.8660254037844386" r="0.16" fill="#A12168"/>
<circle cx="12" cy="0.8660254037844386" r="0.16" fill="#A12168"/>
<circle cx="13" cy="0.8660254037844386" r="0.16" fill="#A12168"/>
<circle cx="14" cy="0.8660254037844386" r="0.16" fill="#A12168"/>
<circle cx="15" cy="0.8660254037844386" r="0.16" fill="#A12168"/>
<circle cx="16" cy="0.8660254037844386" r="0.16" fill="#A12168"/>
<circle cx="17" cy="0.8660254037844386" r="0.16" fill="#A12168"/>
<circle cx="18" cy="0.8660254037844386" r="0.16" fill="#A12168"/>
<circle cx="22" cy="0.8660254037844386" r="0.16" fill="#A12168"/>
<circle cx="23" cy="0.8660254037844386" r="0.16" fill="#A12168"/>
<circle cx="26" cy="0.8660254037844386" r="0.16" fill="#A12168"/>
<circle cx="27" cy="0.8660254037844386" r="0.16" fill="#A12168"/>
<circle cx="28" cy="0.8660254037844386" r="0.16" fill="#A12168"/>
<circle cx="29" cy="0.8660254037844386" r="0.16" fill="#A12168"/>
<circle cx="30" cy="0.8660254037844386" r="0.16" fill="#A12168"/>
<circle cx="31" cy="0.8660254037844386" r="0.16" fill="#A12168"/>
<circle cx="32" cy="0.8660254037844386" r="0.16" fill="#A12168"/>
<circle cx="41" cy="0.8660254037844386" r="0.16" fill="#A12168"/>
<circle cx="42" cy="0.8660254037844386" r="0.16" fill="#A12168"/>
<circle cx="43" cy="0.8660254037844386" r="0.16" fill="#A12168"/>
<circle cx="50" cy="0.8660254037844386" r="0.16" fill="#A12168"/>
<circle cx="51" cy="0.8660254037844386" r="0.16" fill="#A12168"/>
<circle cx="52" cy="0.8660254037844386" r="0.16" fill="#A12168"/>
<circle cx="53" cy="0.8660254037844386" r="0.16" fill="#A12168"/>
<circle cx="54" cy="0.8660254037844386" r="0.16" fill="#A12168"/>
<circle cx="55" cy="0.8660254037844386" r="0.16" fill="#A12168"/>
<circle cx="56" cy="0.8660254037844386" r="0.16" fill="#A12168"/>
<circle cx="57" cy="0.8660254037844386" r="0.16" fill="#A12168"/>
<circle cx="58" cy="0.8660254037844386" r="0.16" fill="#A12168"/>
<circle cx="59" cy="0.8660254037844386" r="0.16" fill="#A12168"/>
<circle cx="60" cy="0.8660254037844386" r="0.16" fill="#A12168"/>
<circle cx="61" cy="0.8660254037844386" r="0.16" fill="#A12168"/>
<circle cx="62" cy="0.8660254037844386" r="0.16" fill="#A12168"/>
<circle cx="63" cy="0.8660254037844386" r="0.16" fill="#A12168"/>
<circle cx="64" cy="0.8660254037844386" r="0.16" fill="#A12168"/>
<circle cx="65" cy="0.8660254037844386" r="0.16" fill="#A12168"/>
<circle cx="66" cy="0.8660254037844386" r="0.16" fill="#A12168"/>
<circle cx="67" cy="0.8660254037844386" r="0.16" fill="#A12168"/>
<circle cx="68" cy="0.8660254037844386" r="0.16" fill="#A12168"/>
<circle cx="69" cy="0.8660254037844386" r="0.16" fill="#A12168"/>
<circle cx="70" cy="0.8660254037844386" r="0.16" fill="#A12168"/>
<circle cx="71" cy="0.8660254037844386" r="0.16" fill="#A12168"/>
<circle cx="73" cy="0.8660254037844386" r="0.16" fill="#A12168"/>
<circle cx="3.5" cy="1.7320508075688772" r="0.16" fill="#A12168"/>
<circle cx="4.5" cy="1.7320508075688772" r="0.16" fill="#A12168"/>
<circle cx="5.5" cy="1.7320508075688772" r="0.16" fill="#A12168"/>
<circle cx="6.5" cy="1.7320508075688772" r="0.16" fill="#A12168"/>
<circle cx="7.5" cy="1.7320508075688772" r="0.16" fill="#A12168"/>
<circle cx="8.5" cy="1.7320508075688772" r="0.16" fill="#A12168"/>
<circle cx="9.5" cy="1.7320508075688772" r="0.16" fill="#A12168"/>
<circle cx="10.5" cy="1.7320508075688772" r="0.16" fill="#A12168"/>
<circle cx="11.5" cy="1.7320508075688772" r="0.16" fill="#A12168"/>
<circle cx="12.5" cy="1.7320508075688772" r="0.16" fill="#A12168"/>
<circle cx="17.5" cy="1.7320508075688772" r="0.16" fill="#A12168"/>
<circle cx="18.5" cy="1.7320508075688772" r="0.16" fill="#A12168"/>
<circle cx="19.5" cy="1.7320508075688772" r="0.16" fill="#A12168"/>
<circle cx="22.5" cy="1.7320508075688772" r="0.16" fill="#A12168"/>
<circle cx="26.5" cy="1.7320508075688772" r="0.16" fill="#A12168"/>
<circle cx="27.5" cy="1.7320508075688772" r="0.16" fill="#A12168"/>
<circle cx="28.5" cy="1.7320508075688772" r="0.16" fill="#A12168"/>
<circle cx="29.5" cy="1.7320508075688772" r="0.16" fill="#A12168"/>
<circle cx="40.5" cy="1.7320508075688772" r="0.16" fill="#A12168"/>
<circle cx="41.5" cy="1.7320508075688772" r="0.16" fill="#A12168"/>
<circle cx="42.5" cy="1.7320508075688772" r="0.16" fill="#A12168"/>
<circle cx="43.5" cy="1.7320508075688772" r="0.16" fill="#A12168"/>
<circle cx="44.5" cy="1.7320508075688772" r="0.16" fill="#A12168"/>
<circle cx="46.5" cy="1.7320508075688772" r="0.16" fill="#A12168"/>
<circle cx="47.5" cy="1.7320508075688772" r="0.16" fill="#A12168"/>
<circle cx="48.5" cy="1.7320508075688772" r="0.16" fill="#A12168"/>
<circle cx="49.5" cy="1.7320508075688772" r="0.16" fill="#A12168"/>
<circle cx="50.5" cy="1.7320508075688772" r="0.16" fill="#A12168"/>
<circle cx="51.5" cy="1.7320508075688772" r="0.16" fill="#A12168"/>
<circle cx="52.5" cy="1.7320508075688772" r="0.16" fill="#A12168"/>
<circle cx="53.5" cy="1.7320508075688772" r="0.16" fill="#A12168"/>
<circle cx="54.5" cy="1.7320508075688772" r="0.16" fill="#A12168"/>
<circle cx="55.5" cy="1.7320508075688772" r="0.16" fill="#A12168"/>
<circle cx="56.5" cy="1.7320508075688772" r="0.16" fill="#A12168"/>
<circle cx="57.5" cy="1.7320508075688772" r="0.16" fill="#A12168"/>
<circle cx="58.5" cy="1.7320508075688772" r="0.16" fill="#A12168"/>
<circle cx="59.5" cy="1.7320508075688772" r="0.16" fill="#A12168"/>
<circle cx="60.5" cy="1.7320508075688772" r="0.16" fill="#A12168"/>
<circle cx="61.5" cy="1.7320508075688772" r="0.16" fill="#A12168"/>
<circle cx="62.5" cy="1.7320508075688772" r="0.16" fill="#A12168"/>
<circle cx="63.5" cy="1.7320508075688772" r="0.16" fill="#A12168"/>
<circle cx="64.5" cy="1.7320508075688772" r="0.16" fill="#A12168"/>
<circle cx="65.5" cy="1.7320508075688772" r="0.16" fill="#A12168"/>
<circle cx="66.5" cy="1.7320508075688772" r="0.16" fill="#A12168"/>
<circle cx="67.5" cy="1.7320508075688772" r="0.16" fill="#A12168"/>
<circle cx="68.5" cy="1.7320508075688772" r="0.16" fill="#A12168"/>
<circle cx="69.5" cy="1.7320508075688772" r="0.16" fill="#A12168"/>
<circle cx="70.5" cy="1.7320508075688772" r="0.16" fill="#A12168"/>
<circle cx="71.5" cy="1.7320508075688772" r="0.16" fill="#A12168"/>
<circle cx="72.5" cy="1.7320508075688772" r="0.16" fill="#A12168"/>
<circle cx="73.5" cy="1.7320508075688772" r="0.16" fill="#A12168"/>
<circle cx="0" cy="2.598076211353316" r="0.16" fill="#A12168"/>
<circle cx="1" cy="2.598076211353316" r="0.16" fill="#A12168"/>
<circle cx="3" cy="2.598076211353316" r="0.16" fill="#A12168"/>
<circle cx="4" cy="2.598076211353316" r="0.16" fill="#A12168"/>
<circle cx="5" cy="2.598076211353316" r="0.16" fill="#A12168"/>
<circle cx="6" cy="2.598076211353316" r="0.16" fill="#A12168"/>
<circle cx="7" cy="2.598076211353316" r="0.16" fill="#A12168"/>
<circle cx="8" cy="2.598076211353316" r="0.16" fill="#A12168"/>
<circle cx="9" cy="2.598076211353316" r="0.16" fill="#A12168"/>
<circle cx="10" cy="2.598076211353316" r="0.16" fill="#A12168"/>
<circle cx="11" cy="2.598076211353316" r="0.16" fill="#A12168"/>
<circle cx="12" cy="2.598076211353316" r="0.16" fill="#A12168"/>
<circle cx="13" cy="2.598076211353316" r="0.16" fill="#A12168"/>
<circle cx="14" cy="2.598076211353316" r="0.16" fill="#A12168"/>
<circle cx="15" cy="2.598076211353316" r="0.16" fill="#A12168"/>
<circle cx="16" cy="2.598076211353316" r="0.16" fill="#A12168"/>
<circle cx="17" cy="2.598076211353316" r="0.16" fill="#A12168"/>
<circle cx="18" cy="2.598076211353316" r="0.16" fill="#A12168"/>
<circle cx="19" cy="2.598076211353316" r="0.16" fill="#A12168"/>
<circle cx="22" cy="2.598076211353316" r="0.16" fill="#A12168"/>
<circle cx="23" cy="2.598076211353316" r="0.16" fill="#A12168"/>
<circle cx="24" cy="2.598076211353316" r="0.16" fill="#A12168"/>
<circle cx="26" cy="2.598076211353316" r="0.16" fill="#A12168"/>
<circle cx="27" cy="2.598076211353316" r="0.16" fill="#A12168"/>
<circle cx="28" cy="2.598076211353316" r="0.16" fill="#A12168"/>
<circle cx="29" cy="2.598076211353316" r="0.16" fill="#A12168"/>
<circle cx="40" cy="2.598076211353316" r="0.16" fill="#A12168"/>
<circle cx="41" cy="2.598076211353316" r="0.16" fill="#A12168"/>
<circle cx="42" cy="2.598076211353316" r="0.16" fill="#A12168"/>
<circle cx="43" cy="2.598076211353316" r="0.16" fill="#A12168"/>
<circle cx="45" cy="2.598076211353316" r="0.16" fill="#A12168"/>
<circle cx="47" cy="2.598076211353316" r="0.16" fill="#A12168"/>
<circle cx="48" cy="2.598076211353316" r="0.16" fill="#A12168"/>
<circle cx="49" cy="2.598076211353316" r="0.16" fill="#A12168"/>
<circle cx="50" cy="2.598076211353316" r="0.16" fill="#A12168"/>
<circle cx="51" cy="2.598076211353316" r="0.16" fill="#A12168"/>
<circle cx="53" cy="2.598076211353316" r="0.16" fill="#A12168"/>
<circle cx="54" cy="2.598076211353316" r="0.16" fill="#A12168"/>
<circle cx="55" cy="2.598076211353316" r="0.16" fill="#A12168"/>
<circle cx="56" cy="2.598076211353316" r="0.16" fill="#A12168"/>
<circle cx="57" cy="2.598076211353316" r="0.16" fill="#A12168"/>
<circle cx="58" cy="2.598076211353316" r="0.16" fill="#A12168"/>
<circle cx="59" cy="2.598076211353316" r="0.16" fill="#A12168"/>
<circle cx="60" cy="2.598076211353316" r="0.16" fill="#A12168"/>
<circle cx="61" cy="2.598076211353316" r="0.16" fill="#A12168"/>
<circle cx="62" cy="2.598076211353316" r="0.16" fill="#A12168"/>
<circle cx="63" cy="2.598076211353316" r="0.16" fill="#A12168"/>
<circle cx="64" cy="2.598076211353316" r="0.16" fill="#A12168"/>
<circle cx="65" cy="2.598076211353316" r="0.16" fill="#A12168"/>
<circle cx="66" cy="2.598076211353316" r="0.16" fill="#A12168"/>
<circle cx="67" cy="2.598076211353316" r="0.16" fill="#A12168"/>
<circle cx="68" cy="2.598076211353316" r="0.16" fill="#A12168"/>
<circle cx="69" cy="2.598076211353316" r="0.16" fill="#A12168"/>
<circle cx="70" cy="2.598076211353316" r="0.16" fill="#A12168"/>
<circle cx="71" cy="2.598076211353316" r="0.16" fill="#A12168"/>
<circle cx="72" cy="2.598076211353316" r="0.16" fill="#A12168"/>
<circle cx="73" cy="2.598076211353316" r="0.16" fill="#A12168"/>
<circle cx="3.5" cy="3.4641016151377544" r="0.16" fill="#A12168"/>
<circle cx="4.5" cy="3.4641016151377544" r="0.16" fill="#A12168"/>
<circle cx="5.5" cy="3.4641016151377544" r="0.16" fill="#A12168"/>
<circle cx="6.5" cy="3.4641016151377544" r="0.16" fill="#A12168"/>
<circle cx="7.5" cy="3.4641016151377544" r="0.16" fill="#A12168"/>
<circle cx="8.5" cy="3.4641016151377544" r="0.16" fill="#A12168"/>
<circle cx="9.5" cy="3.4641016151377544" r="0.16" fill="#A12168"/>
<circle cx="10.5" cy="3.4641016151377544" r="0.16" fill="#A12168"/>
<circle cx="11.5" cy="3.4641016151377544" r="0.16" fill="#A12168"/>
<circle cx="12.5" cy="3.4641016151377544" r="0.16" fill="#A12168"/>
<circle cx="13.5" cy="3.4641016151377544" r="0.16" fill="#A12168"/>
<circle cx="14.5" cy="3.4641016151377544" r="0.16" fill="#A12168"/>
<circle cx="15.5" cy="3.4641016151377544" r="0.16" fill="#A12168"/>
<circle cx="16.5" cy="3.4641016151377544" r="0.16" fill="#A12168"/>
<circle cx="17.5" cy="3.4641016151377544" r="0.16" fill="#A12168"/>
<circle cx="18.5" cy="3.4641016151377544" r="0.16" fill="#A12168"/>
<circle cx="19.5" cy="3.4641016151377544" r="0.16" fill="#A12168"/>
<circle cx="21.5" cy="3.4641016151377544" r="0.16" fill="#A12168"/>
<circle cx="22.5" cy="3.4641016151377544" r="0.16" fill="#A12168"/>
<circle cx="26.5" cy="3.4641016151377544" r="0.16" fill="#A12168"/>
<circle cx="27.5" cy="3.4641016151377544" r="0.16" fill="#A12168"/>
<circle cx="28.5" cy="3.4641016151377544" r="0.16" fill="#A12168"/>
<circle cx="32.5" cy="3.4641016151377544" r="0.16" fill="#A12168"/>
<circle cx="33.5" cy="3.4641016151377544" r="0.16" fill="#A12168"/>
<circle cx="39.5" cy="3.4641016151377544" r="0.16" fill="#A12168"/>
<circle cx="40.5" cy="3.4641016151377544" r="0.16" fill="#A12168"/>
<circle cx="42.5" cy="3.4641016151377544" r="0.16" fill="#A12168"/>
<circle cx="43.5" cy="3.4641016151377544" r="0.16" fill="#A12168"/>
<circle cx="45.5" cy="3.4641016151377544" r="0.16" fill="#A12168"/>
<circle cx="46.5" cy="3.4641016151377544" r="0.16" fill="#A12168"/>
<circle cx="47.5" cy="3.4641016151377544" r="0.16" fill="#A12168"/>
<circle cx="48.5" cy="3.4641016151377544" r="0.16" fill="#A12168"/>
<circle cx="49.5" cy="3.4641016151377544" r="0.16" fill="#A12168"/>
<circle cx="50.5" cy="3.4641016151377544" r="0.16" fill="#A12168"/>
<circle cx="51.5" cy="3.4641016151377544" r="0.16" fill="#A12168"/>
<circle cx="52.5" cy="3.4641016151377544" r="0.16" fill="#A12168"/>
<circle cx="53.5" cy="3.4641016151377544" r="0.16" fill="#A12168"/>
<circle cx="54.5" cy="3.4641016151377544" r="0.16" fill="#A12168"/>
<circle cx="55.5" cy="3.4641016151377544" r="0.16" fill="#A12168"/>
<circle cx="56.5" cy="3.4641016151377544" r="0.16" fill="#A12168"/>
<circle cx="57.5" cy="3.4641016151377544" r="0.16" fill="#A12168"/>
<circle cx="58.5" cy="3.4641016151377544" r="0.16" fill="#A12168"/>
<circle cx="59.5" cy="3.4641016151377544" r="0.16" fill="#A12168"/>
<circle cx="60.5" cy="3.4641016151377544" r="0.16" fill="#A12168"/>
<circle cx="61.5" cy="3.4641016151377544" r="0.16" fill="#A12168"/>
<circle cx="62.5" cy="3.4641016151377544" r="0.16" fill="#A12168"/>
<circle cx="63.5" cy="3.4641016151377544" r="0.16" fill="#A12168"/>
<circle cx="64.5" cy="3.4641016151377544" r="0.16" fill="#A12168"/>
<circle cx="65.5" cy="3.4641016151377544" r="0.16" fill="#A12168"/>
<circle cx="66.5" cy="3.4641016151377544" r="0.16" fill="#A12168"/>
<circle cx="67.5" cy="3.4641016151377544" r="0.16" fill="#A12168"/>
<circle cx="68.5" cy="3.4641016151377544" r="0.16" fill="#A12168"/>
<circle cx="69.5" cy="3.4641016151377544" r="0.16" fill="#A12168"/>
<circle cx="70.5" cy="3.4641016151377544" r="0.16" fill="#A12168"/>
<circle cx="71.5" cy="3.4641016151377544" r="0.16" fill="#A12168"/>
<circle cx="72.5" cy="3.4641016151377544" r="0.16" fill="#A12168"/>
<circle cx="73.5" cy="3.4641016151377544" r="0.16" fill="#A12168"/>
<circle cx="3" cy="4.330127018922193" r="0.16" fill="#A12168"/>
<circle cx="4" cy="4.330127018922193" r="0.16" fill="#A12168"/>
<circle cx="5" cy="4.330127018922193" r="0.16" fill="#A12168"/>
<circle cx="6" cy="4.330127018922193" r="0.16" fill="#A12168"/>
<circle cx="7" cy="4.330127018922193" r="0.16" fill="#A12168"/>
<circle cx="8" cy="4.330127018922193" r="0.16" fill="#A12168"/>
<circle cx="9" cy="4.330127018922193" r="0.16" fill="#A12168"/>
<circle cx="10" cy="4.330127018922193" r="0.16" fill="#A12168"/>
<circle cx="11" cy="4.330127018922193" r="0.16" fill="#A12168"/>
<circle cx="12" cy="4.330127018922193" r="0.16" fill="#A12168"/>
<circle cx="13" cy="4.330127018922193" r="0.16" fill="#A12168"/>
<circle cx="14" cy="4.330127018922193" r="0.16" fill="#A12168"/>
<circle cx="15" cy="4.330127018922193" r="0.16" fill="#A12168"/>
<circle cx="16" cy="4.330127018922193" r="0.16" fill="#A12168"/>
<circle cx="17" cy="4.330127018922193" r="0.16" fill="#A12168"/>
<circle cx="20" cy="4.330127018922193" r="0.16" fill="#A12168"/>
<circle cx="23" cy="4.330127018922193" r="0.16" fill="#A12168"/>
<circle cx="27" cy="4.330127018922193" r="0.16" fill="#A12168"/>
<circle cx="28" cy="4.330127018922193" r="0.16" fill="#A12168"/>
<circle cx="39" cy="4.330127018922193" r="0.16" fill="#A12168"/>
<circle cx="40" cy="4.330127018922193" r="0.16" fill="#A12168"/>
<circle cx="42" cy="4.330127018922193" r="0.16" fill="#A12168"/>
<circle cx="43" cy="4.330127018922193" r="0.16" fill="#A12168"/>
<circle cx="44" cy="4.330127018922193" r="0.16" fill="#A12168"/>
<circle cx="45" cy="4.330127018922193" r="0.16" fill="#A12168"/>
<circle cx="46" cy="4.330127018922193" r="0.16" fill="#A12168"/>
<circle cx="47" cy="4.330127018922193" r="0.16" fill="#A12168"/>
<circle cx="48" cy="4.330127018922193" r="0.16" fill="#A12168"/>
<circle cx="49" cy="4.330127018922193" r="0.16" fill="#A12168"/>
<circle cx="50" cy="4.330127018922193" r="0.16" fill="#A12168"/>
<circle cx="51" cy="4.330127018922193" r="0.16" fill="#A12168"/>
<circle cx="52" cy="4.330127018922193" r="0.16" fill="#A12168"/>
<circle cx="53" cy="4.330127018922193" r="0.16" fill="#A12168"/>
<circle cx="54" cy="4.330127018922193" r="0.16" fill="#A12168"/>
<circle cx="55" cy="4.330127018922193" r="0.16" fill="#A12168"/>
<circle cx="56" cy="4.330127018922193" r="0.16" fill="#A12168"/>
<circle cx="57" cy="4.330127018922193" r="0.16" fill="#A12168"/>
<circle cx="58" cy="4.330127018922193" r="0.16" fill="#A12168"/>
<circle cx="59" cy="4.330127018922193" r="0.16" fill="#A12168"/>
<circle cx="60" cy="4.330127018922193" r="0.16" fill="#A12168"/>
<circle cx="61" cy="4.330127018922193" r="0.16" fill="#A12168"/>
<circle cx="62" cy="4.330127018922193" r="0.16" fill="#A12168"/>
<circle cx="63" cy="4.330127018922193" r="0.16" fill="#A12168"/>
<circle cx="64" cy="4.330127018922193" r="0.16" fill="#A12168"/>
<circle cx="65" cy="4.330127018922193" r="0.16" fill="#A12168"/>
<circle cx="66" cy="4.330127018922193" r="0.16" fill="#A12168"/>
<circle cx="67" cy="4.330127018922193" r="0.16" fill="#A12168"/>
<circle cx="68" cy="4.330127018922193" r="0.16" fill="#A12168"/>
<circle cx="69" cy="4.330127018922193" r="0.16" fill="#A12168"/>
<circle cx="70" cy="4.330127018922193" r="0.16" fill="#A12168"/>
<circle cx="71" cy="4.330127018922193" r="0.16" fill="#A12168"/>
<circle cx="72" cy="4.330127018922193" r="0.16" fill="#A12168"/>
<circle cx="73" cy="4.330127018922193" r="0.16" fill="#A12168"/>
<circle cx="3.5" cy="5.196152422706632" r="0.16" fill="#A12168"/>
<circle cx="4.5" cy="5.196152422706632" r="0.16" fill="#A12168"/>
<circle cx="5.5" cy="5.196152422706632" r="0.16" fill="#A12168"/>
<circle cx="6.5" cy="5.196152422706632" r="0.16" fill="#A12168"/>
<circle cx="7.5" cy="5.196152422706632" r="0.16" fill="#A12168"/>
<circle cx="8.5" cy="5.196152422706632" r="0.16" fill="#A12168"/>
<circle cx="9.5" cy="5.196152422706632" r="0.16" fill="#A12168"/>
<circle cx="10.5" cy="5.196152422706632" r="0.16" fill="#A12168"/>
<circle cx="11.5" cy="5.196152422706632" r="0.16" fill="#A12168"/>
<circle cx="12.5" cy="5.196152422706632" r="0.16" fill="#A12168"/>
<circle cx="13.5" cy="5.196152422706632" r="0.16" fill="#A12168"/>
<circle cx="14.5" cy="5.196152422706632" r="0.16" fill="#A12168"/>
<circle cx="15.5" cy="5.196152422706632" r="0.16" fill="#A12168"/>
<circle cx="16.5" cy="5.196152422706632" r="0.16" fill="#A12168"/>
<circle cx="17.5" cy="5.196152422706632" r="0.16" fill="#A12168"/>
<circle cx="21.5" cy="5.196152422706632" r="0.16" fill="#A12168"/>
<circle cx="22.5" cy="5.196152422706632" r="0.16" fill="#A12168"/>
<circle cx="27.5" cy="5.196152422706632" r="0.16" fill="#A12168"/>
<circle cx="38.5" cy="5.196152422706632" r="0.16" fill="#A12168"/>
<circle cx="39.5" cy="5.196152422706632" r="0.16" fill="#A12168"/>
<circle cx="40.5" cy="5.196152422706632" r="0.16" fill="#A12168"/>
<circle cx="41.5" cy="5.196152422706632" r="0.16" fill="#A12168"/>
<circle cx="42.5" cy="5.196152422706632" r="0.16" fill="#A12168"/>
<circle cx="43.5" cy="5.196152422706632" r="0.16" fill="#A12168"/>
<circle cx="44.5" cy="5.196152422706632" r="0.16" fill="#A12168"/>
<circle cx="45.5" cy="5.196152422706632" r="0.16" fill="#A12168"/>
<circle cx="46.5" cy="5.196152422706632" r="0.16" fill="#A12168"/>
<circle cx="47.5" cy="5.196152422706632" r="0.16" fill="#A12168"/>
<circle cx="48.5" cy="5.196152422706632" r="0.16" fill="#A12168"/>
<circle cx="49.5" cy="5.196152422706632" r="0.16" fill="#A12168"/>
<circle cx="50.5" cy="5.196152422706632" r="0.16" fill="#A12168"/>
<circle cx="51.5" cy="5.196152422706632" r="0.16" fill="#A12168"/>
<circle cx="52.5" cy="5.196152422706632" r="0.16" fill="#A12168"/>
<circle cx="53.5" cy="5.196152422706632" r="0.16" fill="#A12168"/>
<circle cx="54.5" cy="5.196152422706632" r="0.16" fill="#A12168"/>
<circle cx="55.5" cy="5.196152422706632" r="0.16" fill="#A12168"/>
<circle cx="56.5" cy="5.196152422706632" r="0.16" fill="#A12168"/>
<circle cx="57.5" cy="5.196152422706632" r="0.16" fill="#A12168"/>
<circle cx="58.5" cy="5.196152422706632" r="0.16" fill="#A12168"/>
<circle cx="59.5" cy="5.196152422706632" r="0.16" fill="#A12168"/>
<circle cx="60.5" cy="5.196152422706632" r="0.16" fill="#A12168"/>
<circle cx="61.5" cy="5.196152422706632" r="0.16" fill="#A12168"/>
<circle cx="62.5" cy="5.196152422706632" r="0.16" fill="#A12168"/>
<circle cx="63.5" cy="5.196152422706632" r="0.16" fill="#A12168"/>
<circle cx="64.5" cy="5.196152422706632" r="0.16" fill="#A12168"/>
<circle cx="65.5" cy="5.196152422706632" r="0.16" fill="#A12168"/>
<circle cx="66.5" cy="5.196152422706632" r="0.16" fill="#A12168"/>
<circle cx="67.5" cy="5.196152422706632" r="0.16" fill="#A12168"/>
<circle cx="68.5" cy="5.196152422706632" r="0.16" fill="#A12168"/>
<circle cx="71.5" cy="5.196152422706632" r="0.16" fill="#A12168"/>
<circle cx="72.5" cy="5.196152422706632" r="0.16" fill="#A12168"/>
<circle cx="5" cy="6.06217782649107" r="0.16" fill="#A12168"/>
<circle cx="9" cy="6.06217782649107" r="0.16" fill="#A12168"/>
<circle cx="10" cy="6.06217782649107" r="0.16" fill="#A12168"/>
<circle cx="11" cy="6.06217782649107" r="0.16" fill="#A12168"/>
<circle cx="12" cy="6.06217782649107" r="0.16" fill="#A12168"/>
<circle cx="13" cy="6.06217782649107" r="0.16" fill="#A12168"/>
<circle cx="14" cy="6.06217782649107" r="0.16" fill="#A12168"/>
<circle cx="15" cy="6.06217782649107" r="0.16" fill="#A12168"/>
<circle cx="16" cy="6.06217782649107" r="0.16" fill="#A12168"/>
<circle cx="17" cy="6.06217782649107" r="0.16" fill="#A12168"/>
<circle cx="21" cy="6.06217782649107" r="0.16" fill="#A12168"/>
<circle cx="22" cy="6.06217782649107" r="0.16" fill="#A12168"/>
<circle cx="40" cy="6.06217782649107" r="0.16" fill="#A12168"/>
<circle cx="42" cy="6.06217782649107" r="0.16" fill="#A12168"/>
<circle cx="43" cy="6.06217782649107" r="0.16" fill="#A12168"/>
<circle cx="44" cy="6.06217782649107" r="0.16" fill="#A12168"/>
<circle cx="45" cy="6.06217782649107" r="0.16" fill="#A12168"/>
<circle cx="46" cy="6.06217782649107" r="0.16" fill="#A12168"/>
<circle cx="47" cy="6.06217782649107" r="0.16" fill="#A12168"/>
<circle cx="48" cy="6.06217782649107" r="0.16" fill="#A12168"/>
<circle cx="49" cy="6.06217782649107" r="0.16" fill="#A12168"/>
<circle cx="50" cy="6.06217782649107" r="0.16" fill="#A12168"/>
<circle cx="51" cy="6.06217782649107" r="0.16" fill="#A12168"/>
<circle cx="52" cy="6.06217782649107" r="0.16" fill="#A12168"/>
<circle cx="53" cy="6.06217782649107" r="0.16" fill="#A12168"/>
<circle cx="54" cy="6.06217782649107" r="0.16" fill="#A12168"/>
<circle cx="55" cy="6.06217782649107" r="0.16" fill="#A12168"/>
<circle cx="56" cy="6.06217782649107" r="0.16" fill="#A12168"/>
<circle cx="57" cy="6.06217782649107" r="0.16" fill="#A12168"/>
<circle cx="58" cy="6.06217782649107" r="0.16" fill="#A12168"/>
<circle cx="59" cy="6.06217782649107" r="0.16" fill="#A12168"/>
<circle cx="60" cy="6.06217782649107" r="0.16" fill="#A12168"/>
<circle cx="61" cy="6.06217782649107" r="0.16" fill="#A12168"/>
<circle cx="62" cy="6.06217782649107" r="0.16" fill="#A12168"/>
<circle cx="63" cy="6.06217782649107" r="0.16" fill="#A12168"/>
<circle cx="64" cy="6.06217782649107" r="0.16" fill="#A12168"/>
<circle cx="65" cy="6.06217782649107" r="0.16" fill="#A12168"/>
<circle cx="66" cy="6.06217782649107" r="0.16" fill="#A12168"/>
<circle cx="70" cy="6.06217782649107" r="0.16" fill="#A12168"/>
<circle cx="10.5" cy="6.928203230275509" r="0.16" fill="#A12168"/>
<circle cx="11.5" cy="6.928203230275509" r="0.16" fill="#A12168"/>
<circle cx="12.5" cy="6.928203230275509" r="0.16" fill="#A12168"/>
<circle cx="13.5" cy="6.928203230275509" r="0.16" fill="#A12168"/>
<circle cx="14.5" cy="6.928203230275509" r="0.16" fill="#A12168"/>
<circle cx="15.5" cy="6.928203230275509" r="0.16" fill="#A12168"/>
<circle cx="16.5" cy="6.928203230275509" r="0.16" fill="#A12168"/>
<circle cx="17.5" cy="6.928203230275509" r="0.16" fill="#A12168"/>
<circle cx="18.5" cy="6.928203230275509" r="0.16" fill="#A12168"/>
<circle cx="21.5" cy="6.928203230275509" r="0.16" fill="#A12168"/>
<circle cx="22.5" cy="6.928203230275509" r="0.16" fill="#A12168"/>
<circle cx="23.5" cy="6.928203230275509" r="0.16" fill="#A12168"/>
<circle cx="41.5" cy="6.928203230275509" r="0.16" fill="#A12168"/>
<circle cx="42.5" cy="6.928203230275509" r="0.16" fill="#A12168"/>
<circle cx="43.5" cy="6.928203230275509" r="0.16" fill="#A12168"/>
<circle cx="44.5" cy="6.928203230275509" r="0.16" fill="#A12168"/>
<circle cx="45.5" cy="6.928203230275509" r="0.16" fill="#A12168"/>
<circle cx="46.5" cy="6.928203230275509" r="0.16" fill="#A12168"/>
<circle cx="47.5" cy="6.928203230275509" r="0.16" fill="#A12168"/>
<circle cx="48.5" cy="6.928203230275509" r="0.16" fill="#A12168"/>
<circle cx="49.5" cy="6.928203230275509" r="0.16" fill="#A12168"/>
<circle cx="50.5" cy="6.928203230275509" r="0.16" fill="#A12168"/>
<circle cx="51.5" cy="6.928203230275509" r="0.16" fill="#A12168"/>
<circle cx="52.5" cy="6.928203230275509" r="0.16" fill="#A12168"/>
<circle cx="53.5" cy="6.928203230275509" r="0.16" fill="#A12168"/>
<circle cx="54.5" cy="6.928203230275509" r="0.16" fill="#A12168"/>
<circle cx="55.5" cy="6.928203230275509" r="0.16" fill="#A12168"/>
<circle cx="56.5" cy="6.928203230275509" r="0.16" fill="#A12168"/>
<circle cx="57.5" cy="6.928203230275509" r="0.16" fill="#A12168"/>
<circle cx="58.5" cy="6.928203230275509" r="0.16" fill="#A12168"/>
<circle cx="59.5" cy="6.928203230275509" r="0.16" fill="#A12168"/>
<circle cx="60.5" cy="6.928203230275509" r="0.16" fill="#A12168"/>
<circle cx="61.5" cy="6.928203230275509" r="0.16" fill="#A12168"/>
<circle cx="62.5" cy="6.928203230275509" r="0.16" fill="#A12168"/>
<circle cx="63.5" cy="6.928203230275509" r="0.16" fill="#A12168"/>
<circle cx="64.5" cy="6.928203230275509" r="0.16" fill="#A12168"/>
<circle cx="65.5" cy="6.928203230275509" r="0.16" fill="#A12168"/>
<circle cx="69.5" cy="6.928203230275509" r="0.16" fill="#A12168"/>
<circle cx="70.5" cy="6.928203230275509" r="0.16" fill="#A12168"/>
<circle cx="11" cy="7.794228634059947" r="0.16" fill="#A12168"/>
<circle cx="12" cy="7.794228634059947" r="0.16" fill="#A12168"/>
<circle cx="13" cy="7.794228634059947" r="0.16" fill="#A12168"/>
<circle cx="14" cy="7.794228634059947" r="0.16" fill="#A12168"/>
<circle cx="15" cy="7.794228634059947" r="0.16" fill="#A12168"/>
<circle cx="16" cy="7.794228634059947" r="0.16" fill="#A12168"/>
<circle cx="17" cy="7.794228634059947" r="0.16" fill="#A12168"/>
<circle cx="18" cy="7.794228634059947" r="0.16" fill="#A12168"/>
<circle cx="19" cy="7.794228634059947" r="0.16" fill="#A12168"/>
<circle cx="21" cy="7.794228634059947" r="0.16" fill="#A12168"/>
<circle cx="22" cy="7.794228634059947" r="0.16" fill="#A12168"/>
<circle cx="23" cy="7.794228634059947" r="0.16" fill="#A12168"/>
<circle cx="24" cy="7.794228634059947" r="0.16" fill="#A12168"/>
<circle cx="25" cy="7.794228634059947" r="0.16" fill="#A12168"/>
<circle cx="39" cy="7.794228634059947" r="0.16" fill="#A12168"/>
<circle cx="41" cy="7.794228634059947" r="0.16" fill="#A12168"/>
<circle cx="42" cy="7.794228634059947" r="0.16" fill="#A12168"/>
<circle cx="43" cy="7.794228634059947" r="0.16" fill="#A12168"/>
<circle cx="44" cy="7.794228634059947" r="0.16" fill="#A12168"/>
<circle cx="45" cy="7.794228634059947" r="0.16" fill="#A12168"/>
<circle cx="46" cy="7.794228634059947" r="0.16" fill="#A12168"/>
<circle cx="47" cy="7.794228634059947" r="0.16" fill="#A12168"/>
<circle cx="48" cy="7.794228634059947" r="0.16" fill="#A12168"/>
<circle cx="49" cy="7.794228634059947" r="0.16" fill="#A12168"/>
<circle cx="50" cy="7.794228634059947" r="0.16" fill="#A12168"/>
<circle cx="51" cy="7.794228634059947" r="0.16" fill="#A12168"/>
<circle cx="52" cy="7.794228634059947" r="0.16" fill="#A12168"/>
<circle cx="53" cy="7.794228634059947" r="0.16" fill="#A12168"/>
<circle cx="54" cy="7.794228634059947" r="0.16" fill="#A12168"/>
<circle cx="55" cy="7.794228634059947" r="0.16" fill="#A12168"/>
<circle cx="56" cy="7.794228634059947" r="0.16" fill="#A12168"/>
<circle cx="57" cy="7.794228634059947" r="0.16" fill="#A12168"/>
<circle cx="58" cy="7.794228634059947" r="0.16" fill="#A12168"/>
<circle cx="59" cy="7.794228634059947" r="0.16" fill="#A12168"/>
<circle cx="60" cy="7.794228634059947" r="0.16" fill="#A12168"/>
<circle cx="61" cy="7.794228634059947" r="0.16" fill="#A12168"/>
<circle cx="62" cy="7.794228634059947" r="0.16" fill="#A12168"/>
<circle cx="63" cy="7.794228634059947" r="0.16" fill="#A12168"/>
<circle cx="64" cy="7.794228634059947" r="0.16" fill="#A12168"/>
<circle cx="65" cy="7.794228634059947" r="0.16" fill="#A12168"/>
<circle cx="70" cy="7.794228634059947" r="0.16" fill="#A12168"/>
<circle cx="11.5" cy="8.660254037844386" r="0.16" fill="#A12168"/>
<circle cx="12.5" cy="8.660254037844386" r="0.16" fill="#A12168"/>
<circle cx="13.5" cy="8.660254037844386" r="0.16" fill="#A12168"/>
<circle cx="14.5" cy="8.660254037844386" r="0.16" fill="#A12168"/>
<circle cx="15.5" cy="8.660254037844386" r="0.16" fill="#A12168"/>
<circle cx="16.5" cy="8.660254037844386" r="0.16" fill="#A12168"/>
<circle cx="17.5" cy="8.660254037844386" r="0.16" fill="#A12168"/>
<circle cx="18.5" cy="8.660254037844386" r="0.16" fill="#A12168"/>
<circle cx="19.5" cy="8.660254037844386" r="0.16" fill="#A12168"/>
<circle cx="21.5" cy="8.660254037844386" r="0.16" fill="#A12168"/>
<circle cx="22.5" cy="8.660254037844386" r="0.16" fill="#A12168"/>
<circle cx="23.5" cy="8.660254037844386" r="0.16" fill="#A12168"/>
<circle cx="24.5" cy="8.660254037844386" r="0.16" fill="#A12168"/>
<circle cx="25.5" cy="8.660254037844386" r="0.16" fill="#A12168"/>
<circle cx="36.5" cy="8.660254037844386" r="0.16" fill="#A12168"/>
<circle cx="38.5" cy="8.660254037844386" r="0.16" fill="#A12168"/>
<circle cx="39.5" cy="8.660254037844386" r="0.16" fill="#A12168"/>
<circle cx="40.5" cy="8.660254037844386" r="0.16" fill="#A12168"/>
<circle cx="41.5" cy="8.660254037844386" r="0.16" fill="#A12168"/>
<circle cx="42.5" cy="8.660254037844386" r="0.16" fill="#A12168"/>
<circle cx="43.5" cy="8.660254037844386" r="0.16" fill="#A12168"/>
<circle cx="44.5" cy="8.660254037844386" r="0.16" fill="#A12168"/>
<circle cx="45.5" cy="8.660254037844386" r="0.16" fill="#A12168"/>
<circle cx="46.5" cy="8.660254037844386" r="0.16" fill="#A12168"/>
<circle cx="47.5" cy="8.660254037844386" r="0.16" fill="#A12168"/>
<circle cx="48.5" cy="8.660254037844386" r="0.16" fill="#A12168"/>
<circle cx="49.5" cy="8.660254037844386" r="0.16" fill="#A12168"/>
<circle cx="50.5" cy="8.660254037844386" r="0.16" fill="#A12168"/>
<circle cx="51.5" cy="8.660254037844386" r="0.16" fill="#A12168"/>
<circle cx="52.5" cy="8.660254037844386" r="0.16" fill="#A12168"/>
<circle cx="53.5" cy="8.660254037844386" r="0.16" fill="#A12168"/>
<circle cx="54.5" cy="8.660254037844386" r="0.16" fill="#A12168"/>
<circle cx="55.5" cy="8.660254037844386" r="0.16" fill="#A12168"/>
<circle cx="56.5" cy="8.660254037844386" r="0.16" fill="#A12168"/>
<circle cx="57.5" cy="8.660254037844386" r="0.16" fill="#A12168"/>
<circle cx="58.5" cy="8.660254037844386" r="0.16" fill="#A12168"/>
<circle cx="59.5" cy="8.660254037844386" r="0.16" fill="#A12168"/>
<circle cx="60.5" cy="8.660254037844386" r="0.16" fill="#A12168"/>
<circle cx="61.5" cy="8.660254037844386" r="0.16" fill="#A12168"/>
<circle cx="62.5" cy="8.660254037844386" r="0.16" fill="#A12168"/>
<circle cx="63.5" cy="8.660254037844386" r="0.16" fill="#A12168"/>
<circle cx="64.5" cy="8.660254037844386" r="0.16" fill="#A12168"/>
<circle cx="65.5" cy="8.660254037844386" r="0.16" fill="#A12168"/>
<circle cx="66.5" cy="8.660254037844386" r="0.16" fill="#A12168"/>
<circle cx="69.5" cy="8.660254037844386" r="0.16" fill="#A12168"/>
<circle cx="12" cy="9.526279441628825" r="0.16" fill="#A12168"/>
<circle cx="13" cy="9.526279441628825" r="0.16" fill="#A12168"/>
<circle cx="14" cy="9.526279441628825" r="0.16" fill="#A12168"/>
<circle cx="15" cy="9.526279441628825" r="0.16" fill="#A12168"/>
<circle cx="16" cy="9.526279441628825" r="0.16" fill="#A12168"/>
<circle cx="17" cy="9.526279441628825" r="0.16" fill="#A12168"/>
<circle cx="18" cy="9.526279441628825" r="0.16" fill="#A12168"/>
<circle cx="19" cy="9.526279441628825" r="0.16" fill="#A12168"/>
<circle cx="20" cy="9.526279441628825" r="0.16" fill="#A12168"/>
<circle cx="21" cy="9.526279441628825" r="0.16" fill="#A12168"/>
<circle cx="22" cy="9.526279441628825" r="0.16" fill="#A12168"/>
<circle cx="25" cy="9.526279441628825" r="0.16" fill="#A12168"/>
<circle cx="37" cy="9.526279441628825" r="0.16" fill="#A12168"/>
<circle cx="38" cy="9.526279441628825" r="0.16" fill="#A12168"/>
<circle cx="39" cy="9.526279441628825" r="0.16" fill="#A12168"/>
<circle cx="40" cy="9.526279441628825" r="0.16" fill="#A12168"/>
<circle cx="41" cy="9.526279441628825" r="0.16" fill="#A12168"/>
<circle cx="42" cy="9.526279441628825" r="0.16" fill="#A12168"/>
<circle cx="43" cy="9.526279441628825" r="0.16" fill="#A12168"/>
<circle cx="44" cy="9.526279441628825" r="0.16" fill="#A12168"/>
<circle cx="45" cy="9.526279441628825" r="0.16" fill="#A12168"/>
<circle cx="46" cy="9.526279441628825" r="0.16" fill="#A12168"/>
<circle cx="47" cy="9.526279441628825" r="0.16" fill="#A12168"/>
<circle cx="48" cy="9.526279441628825" r="0.16" fill="#A12168"/>
<circle cx="49" cy="9.526279441628825" r="0.16" fill="#A12168"/>
<circle cx="50" cy="9.526279441628825" r="0.16" fill="#A12168"/>
<circle cx="51" cy="9.526279441628825" r="0.16" fill="#A12168"/>
<circle cx="52" cy="9.526279441628825" r="0.16" fill="#A12168"/>
<circle cx="53" cy="9.526279441628825" r="0.16" fill="#A12168"/>
<circle cx="54" cy="9.526279441628825" r="0.16" fill="#A12168"/>
<circle cx="55" cy="9.526279441628825" r="0.16" fill="#A12168"/>
<circle cx="56" cy="9.526279441628825" r="0.16" fill="#A12168"/>
<circle cx="57" cy="9.526279441628825" r="0.16" fill="#A12168"/>
<circle cx="58" cy="9.526279441628825" r="0.16" fill="#A12168"/>
<circle cx="59" cy="9.526279441628825" r="0.16" fill="#A12168"/>
<circle cx="60" cy="9.526279441628825" r="0.16" fill="#A12168"/>
<circle cx="61" cy="9.526279441628825" r="0.16" fill="#A12168"/>
<circle cx="62" cy="9.526279441628825" r="0.16" fill="#A12168"/>
<circle cx="63" cy="9.526279441628825" r="0.16" fill="#A12168"/>
<circle cx="64" cy="9.526279441628825" r="0.16" fill="#A12168"/>
<circle cx="65" cy="9.526279441628825" r="0.16" fill="#A12168"/>
<circle cx="11.5" cy="10.392304845413264" r="0.16" fill="#A12168"/>
<circle cx="12.5" cy="10.392304845413264" r="0.16" fill="#A12168"/>
<circle cx="13.5" cy="10.392304845413264" r="0.16" fill="#A12168"/>
<circle cx="14.5" cy="10.392304845413264" r="0.16" fill="#A12168"/>
<circle cx="15.5" cy="10.392304845413264" r="0.16" fill="#A12168"/>
<circle cx="16.5" cy="10.392304845413264" r="0.16" fill="#A12168"/>
<circle cx="17.5" cy="10.392304845413264" r="0.16" fill="#A12168"/>
<circle cx="18.5" cy="10.392304845413264" r="0.16" fill="#A12168"/>
<circle cx="19.5" cy="10.392304845413264" r="0.16" fill="#A12168"/>
<circle cx="20.5" cy="10.392304845413264" r="0.16" fill="#A12168"/>
<circle cx="21.5" cy="10.392304845413264" r="0.16" fill="#A12168"/>
<circle cx="22.5" cy="10.392304845413264" r="0.16" fill="#A12168"/>
<circle cx="23.5" cy="10.392304845413264" r="0.16" fill="#A12168"/>
<circle cx="24.5" cy="10.392304845413264" r="0.16" fill="#A12168"/>
<circle cx="37.5" cy="10.392304845413264" r="0.16" fill="#A12168"/>
<circle cx="38.5" cy="10.392304845413264" r="0.16" fill="#A12168"/>
<circle cx="39.5" cy="10.392304845413264" r="0.16" fill="#A12168"/>
<circle cx="40.5" cy="10.392304845413264" r="0.16" fill="#A12168"/>
<circle cx="41.5" cy="10.392304845413264" r="0.16" fill="#A12168"/>
<circle cx="42.5" cy="10.392304845413264" r="0.16" fill="#A12168"/>
<circle cx="45.5" cy="10.392304845413264" r="0.16" fill="#A12168"/>
<circle cx="46.5" cy="10.392304845413264" r="0.16" fill="#A12168"/>
<circle cx="48.5" cy="10.392304845413264" r="0.16" fill="#A12168"/>
<circle cx="49.5" cy="10.392304845413264" r="0.16" fill="#A12168"/>
<circle cx="50.5" cy="10.392304845413264" r="0.16" fill="#A12168"/>
<circle cx="51.5" cy="10.392304845413264" r="0.16" fill="#A12168"/>
<circle cx="52.5" cy="10.392304845413264" r="0.16" fill="#A12168"/>
<circle cx="53.5" cy="10.392304845413264" r="0.16" fill="#A12168"/>
<circle cx="54.5" cy="10.392304845413264" r="0.16" fill="#A12168"/>
<circle cx="55.5" cy="10.392304845413264" r="0.16" fill="#A12168"/>
<circle cx="56.5" cy="10.392304845413264" r="0.16" fill="#A12168"/>
<circle cx="57.5" cy="10.392304845413264" r="0.16" fill="#A12168"/>
<circle cx="58.5" cy="10.392304845413264" r="0.16" fill="#A12168"/>
<circle cx="59.5" cy="10.392304845413264" r="0.16" fill="#A12168"/>
<circle cx="60.5" cy="10.392304845413264" r="0.16" fill="#A12168"/>
<circle cx="61.5" cy="10.392304845413264" r="0.16" fill="#A12168"/>
<circle cx="62.5" cy="10.392304845413264" r="0.16" fill="#A12168"/>
<circle cx="63.5" cy="10.392304845413264" r="0.16" fill="#A12168"/>
<circle cx="64.5" cy="10.392304845413264" r="0.16" fill="#A12168"/>
<circle cx="12" cy="11.258330249197702" r="0.16" fill="#A12168"/>
<circle cx="13" cy="11.258330249197702" r="0.16" fill="#A12168"/>
<circle cx="14" cy="11.258330249197702" r="0.16" fill="#A12168"/>
<circle cx="15" cy="11.258330249197702" r="0.16" fill="#A12168"/>
<circle cx="16" cy="11.258330249197702" r="0.16" fill="#A12168"/>
<circle cx="17" cy="11.258330249197702" r="0.16" fill="#A12168"/>
<circle cx="18" cy="11.258330249197702" r="0.16" fill="#A12168"/>
<circle cx="19" cy="11.258330249197702" r="0.16" fill="#A12168"/>
<circle cx="20" cy="11.258330249197702" r="0.16" fill="#A12168"/>
<circle cx="21" cy="11.258330249197702" r="0.16" fill="#A12168"/>
<circle cx="22" cy="11.258330249197702" r="0.16" fill="#A12168"/>
<circle cx="36" cy="11.258330249197702" r="0.16" fill="#A12168"/>
<circle cx="37" cy="11.258330249197702" r="0.16" fill="#A12168"/>
<circle cx="41" cy="11.258330249197702" r="0.16" fill="#A12168"/>
<circle cx="42" cy="11.258330249197702" r="0.16" fill="#A12168"/>
<circle cx="46" cy="11.258330249197702" r="0.16" fill="#A12168"/>
<circle cx="48" cy="11.258330249197702" r="0.16" fill="#A12168"/>
<circle cx="49" cy="11.258330249197702" r="0.16" fill="#A12168"/>
<circle cx="50" cy="11.258330249197702" r="0.16" fill="#A12168"/>
<circle cx="51" cy="11.258330249197702" r="0.16" fill="#A12168"/>
<circle cx="52" cy="11.258330249197702" r="0.16" fill="#A12168"/>
<circle cx="53" cy="11.258330249197702" r="0.16" fill="#A12168"/>
<circle cx="54" cy="11.258330249197702" r="0.16" fill="#A12168"/>
<circle cx="55" cy="11.258330249197702" r="0.16" fill="#A12168"/>
<circle cx="56" cy="11.258330249197702" r="0.16" fill="#A12168"/>
<circle cx="57" cy="11.258330249197702" r="0.16" fill="#A12168"/>
<circle cx="58" cy="11.258330249197702" r="0.16" fill="#A12168"/>
<circle cx="59" cy="11.258330249197702" r="0.16" fill="#A12168"/>
<circle cx="60" cy="11.258330249197702" r="0.16" fill="#A12168"/>
<circle cx="61" cy="11.258330249197702" r="0.16" fill="#A12168"/>
<circle cx="62" cy="11.258330249197702" r="0.16" fill="#A12168"/>
<circle cx="63" cy="11.258330249197702" r="0.16" fill="#A12168"/>
<circle cx="64" cy="11.258330249197702" r="0.16" fill="#A12168"/>
<circle cx="66" cy="11.258330249197702" r="0.16" fill="#A12168"/>
<circle cx="11.5" cy="12.12435565298214" r="0.16" fill="#A12168"/>
<circle cx="12.5" cy="12.12435565298214" r="0.16" fill="#A12168"/>
<circle cx="13.5" cy="12.12435565298214" r="0.16" fill="#A12168"/>
<circle cx="14.5" cy="12.12435565298214" r="0.16" fill="#A12168"/>
<circle cx="15.5" cy="12.12435565298214" r="0.16" fill="#A12168"/>
<circle cx="16.5" cy="12.12435565298214" r="0.16" fill="#A12168"/>
<circle cx="17.5" cy="12.12435565298214" r="0.16" fill="#A12168"/>
<circle cx="18.5" cy="12.12435565298214" r="0.16" fill="#A12168"/>
<circle cx="19.5" cy="12.12435565298214" r="0.16" fill="#A12168"/>
<circle cx="20.5" cy="12.12435565298214" r="0.16" fill="#A12168"/>
<circle cx="21.5" cy="12.12435565298214" r="0.16" fill="#A12168"/>
<circle cx="35.5" cy="12.12435565298214" r="0.16" fill="#A12168"/>
<circle cx="36.5" cy="12.12435565298214" r="0.16" fill="#A12168"/>
<circle cx="41.5" cy="12.12435565298214" r="0.16" fill="#A12168"/>
<circle cx="42.5" cy="12.12435565298214" r="0.16" fill="#A12168"/>
<circle cx="43.5" cy="12.12435565298214" r="0.16" fill="#A12168"/>
<circle cx="44.5" cy="12.12435565298214" r="0.16" fill="#A12168"/>
<circle cx="45.5" cy="12.12435565298214" r="0.16" fill="#A12168"/>
<circle cx="46.5" cy="12.12435565298214" r="0.16" fill="#A12168"/>
<circle cx="48.5" cy="12.12435565298214" r="0.16" fill="#A12168"/>
<circle cx="49.5" cy="12.12435565298214" r="0.16" fill="#A12168"/>
<circle cx="50.5" cy="12.12435565298214" r="0.16" fill="#A12168"/>
<circle cx="51.5" cy="12.12435565298214" r="0.16" fill="#A12168"/>
<circle cx="52.5" cy="12.12435565298214" r="0.16" fill="#A12168"/>
<circle cx="53.5" cy="12.12435565298214" r="0.16" fill="#A12168"/>
<circle cx="54.5" cy="12.12435565298214" r="0.16" fill="#A12168"/>
<circle cx="55.5" cy="12.12435565298214" r="0.16" fill="#A12168"/>
<circle cx="56.5" cy="12.12435565298214" r="0.16" fill="#A12168"/>
<circle cx="57.5" cy="12.12435565298214" r="0.16" fill="#A12168"/>
<circle cx="58.5" cy="12.12435565298214" r="0.16" fill="#A12168"/>
<circle cx="59.5" cy="12.12435565298214" r="0.16" fill="#A12168"/>
<circle cx="60.5" cy="12.12435565298214" r="0.16" fill="#A12168"/>
<circle cx="61.5" cy="12.12435565298214" r="0.16" fill="#A12168"/>
<circle cx="62.5" cy="12.12435565298214" r="0.16" fill="#A12168"/>
<circle cx="12" cy="12.990381056766578" r="0.16" fill="#A12168"/>
<circle cx="13" cy="12.990381056766578" r="0.16" fill="#A12168"/>
<circle cx="14" cy="12.990381056766578" r="0.16" fill="#A12168"/>
<circle cx="15" cy="12.990381056766578" r="0.16" fill="#A12168"/>
<circle cx="16" cy="12.990381056766578" r="0.16" fill="#A12168"/>
<circle cx="17" cy="12.990381056766578" r="0.16" fill="#A12168"/>
<circle cx="18" cy="12.990381056766578" r="0.16" fill="#A12168"/>
<circle cx="19" cy="12.990381056766578" r="0.16" fill="#A12168"/>
<circle cx="20" cy="12.990381056766578" r="0.16" fill="#A12168"/>
<circle cx="21" cy="12.990381056766578" r="0.16" fill="#A12168"/>
<circle cx="36" cy="12.990381056766578" r="0.16" fill="#A12168"/>
<circle cx="38" cy="12.990381056766578" r="0.16" fill="#A12168"/>
<circle cx="39" cy="12.990381056766578" r="0.16" fill="#A12168"/>
<circle cx="44" cy="12.990381056766578" r="0.16" fill="#A12168"/>
<circle cx="45" cy="12.990381056766578" r="0.16" fill="#A12168"/>
<circle cx="46" cy="12.990381056766578" r="0.16" fill="#A12168"/>
<circle cx="47" cy="12.990381056766578" r="0.16" fill="#A12168"/>
<circle cx="48" cy="12.990381056766578" r="0.16" fill="#A12168"/>
<circle cx="49" cy="12.990381056766578" r="0.16" fill="#A12168"/>
<circle cx="50" cy="12.990381056766578" r="0.16" fill="#A12168"/>
<circle cx="51" cy="12.990381056766578" r="0.16" fill="#A12168"/>
<circle cx="52" cy="12.990381056766578" r="0.16" fill="#A12168"/>
<circle cx="53" cy="12.990381056766578" r="0.16" fill="#A12168"/>
<circle cx="54" cy="12.990381056766578" r="0.16" fill="#A12168"/>
<circle cx="55" cy="12.990381056766578" r="0.16" fill="#A12168"/>
<circle cx="56" cy="12.990381056766578" r="0.16" fill="#A12168"/>
<circle cx="57" cy="12.990381056766578" r="0.16" fill="#A12168"/>
<circle cx="58" cy="12.990381056766578" r="0.16" fill="#A12168"/>
<circle cx="59" cy="12.990381056766578" r="0.16" fill="#A12168"/>
<circle cx="60" cy="12.990381056766578" r="0.16" fill="#A12168"/>
<circle cx="61" cy="12.990381056766578" r="0.16" fill="#A12168"/>
<circle cx="66" cy="12.990381056766578" r="0.16" fill="#A12168"/>
<circle cx="13.5" cy="13.856406460551018" r="0.16" fill="#A12168"/>
<circle cx="14.5" cy="13.856406460551018" r="0.16" fill="#A12168"/>
<circle cx="15.5" cy="13.856406460551018" r="0.16" fill="#A12168"/>
<circle cx="16.5" cy="13.856406460551018" r="0.16" fill="#A12168"/>
<circle cx="17.5" cy="13.856406460551018" r="0.16" fill="#A12168"/>
<circle cx="18.5" cy="13.856406460551018" r="0.16" fill="#A12168"/>
<circle cx="19.5" cy="13.856406460551018" r="0.16" fill="#A12168"/>
<circle cx="20.5" cy="13.856406460551018" r="0.16" fill="#A12168"/>
<circle cx="35.5" cy="13.856406460551018" r="0.16" fill="#A12168"/>
<circle cx="36.5" cy="13.856406460551018" r="0.16" fill="#A12168"/>
<circle cx="37.5" cy="13.856406460551018" r="0.16" fill="#A12168"/>
<circle cx="38.5" cy="13.856406460551018" r="0.16" fill="#A12168"/>
<circle cx="44.5" cy="13.856406460551018" r="0.16" fill="#A12168"/>
<circle cx="45.5" cy="13.856406460551018" r="0.16" fill="#A12168"/>
<circle cx="46.5" cy="13.856406460551018" r="0.16" fill="#A12168"/>
<circle cx="47.5" cy="13.856406460551018" r="0.16" fill="#A12168"/>
<circle cx="48.5" cy="13.856406460551018" r="0.16" fill="#A12168"/>
<circle cx="49.5" cy="13.856406460551018" r="0.16" fill="#A12168"/>
<circle cx="50.5" cy="13.856406460551018" r="0.16" fill="#A12168"/>
<circle cx="51.5" cy="13.856406460551018" r="0.16" fill="#A12168"/>
<circle cx="52.5" cy="13.856406460551018" r="0.16" fill="#A12168"/>
<circle cx="53.5" cy="13.856406460551018" r="0.16" fill="#A12168"/>
<circle cx="54.5" cy="13.856406460551018" r="0.16" fill="#A12168"/>
<circle cx="55.5" cy="13.856406460551018" r="0.16" fill="#A12168"/>
<circle cx="56.5" cy="13.856406460551018" r="0.16" fill="#A12168"/>
<circle cx="57.5" cy="13.856406460551018" r="0.16" fill="#A12168"/>
<circle cx="58.5" cy="13.856406460551018" r="0.16" fill="#A12168"/>
<circle cx="59.5" cy="13.856406460551018" r="0.16" fill="#A12168"/>
<circle cx="60.5" cy="13.856406460551018" r="0.16" fill="#A12168"/>
<circle cx="61.5" cy="13.856406460551018" r="0.16" fill="#A12168"/>
<circle cx="64.5" cy="13.856406460551018" r="0.16" fill="#A12168"/>
<circle cx="14" cy="14.722431864335457" r="0.16" fill="#A12168"/>
<circle cx="15" cy="14.722431864335457" r="0.16" fill="#A12168"/>
<circle cx="16" cy="14.722431864335457" r="0.16" fill="#A12168"/>
<circle cx="17" cy="14.722431864335457" r="0.16" fill="#A12168"/>
<circle cx="20" cy="14.722431864335457" r="0.16" fill="#A12168"/>
<circle cx="35" cy="14.722431864335457" r="0.16" fill="#A12168"/>
<circle cx="36" cy="14.722431864335457" r="0.16" fill="#A12168"/>
<circle cx="37" cy="14.722431864335457" r="0.16" fill="#A12168"/>
<circle cx="38" cy="14.722431864335457" r="0.16" fill="#A12168"/>
<circle cx="39" cy="14.722431864335457" r="0.16" fill="#A12168"/>
<circle cx="40" cy="14.722431864335457" r="0.16" fill="#A12168"/>
<circle cx="41" cy="14.722431864335457" r="0.16" fill="#A12168"/>
<circle cx="42" cy="14.722431864335457" r="0.16" fill="#A12168"/>
<circle cx="43" cy="14.722431864335457" r="0.16" fill="#A12168"/>
<circle cx="44" cy="14.722431864335457" r="0.16" fill="#A12168"/>
<circle cx="45" cy="14.722431864335457" r="0.16" fill="#A12168"/>
<circle cx="46" cy="14.722431864335457" r="0.16" fill="#A12168"/>
<circle cx="48" cy="14.722431864335457" r="0.16" fill="#A12168"/>
<circle cx="49" cy="14.722431864335457" r="0.16" fill="#A12168"/>
<circle cx="50" cy="14.722431864335457" r="0.16" fill="#A12168"/>
<circle cx="51" cy="14.722431864335457" r="0.16" fill="#A12168"/>
<circle cx="52" cy="14.722431864335457" r="0.16" fill="#A12168"/>
<circle cx="53" cy="14.722431864335457" r="0.16" fill="#A12168"/>
<circle cx="54" cy="14.722431864335457" r="0.16" fill="#A12168"/>
<circle cx="55" cy="14.722431864335457" r="0.16" fill="#A12168"/>
<circle cx="56" cy="14.722431864335457" r="0.16" fill="#A12168"/>
<circle cx="57" cy="14.722431864335457" r="0.16" fill="#A12168"/>
<circle cx="58" cy="14.722431864335457" r="0.16" fill="#A12168"/>
<circle cx="59" cy="14.722431864335457" r="0.16" fill="#A12168"/>
<circle cx="60" cy="14.722431864335457" r="0.16" fill="#A12168"/>
<circle cx="61" cy="14.722431864335457" r="0.16" fill="#A12168"/>
<circle cx="62" cy="14.722431864335457" r="0.16" fill="#A12168"/>
<circle cx="14.5" cy="15.588457268119894" r="0.16" fill="#A12168"/>
<circle cx="15.5" cy="15.588457268119894" r="0.16" fill="#A12168"/>
<circle cx="16.5" cy="15.588457268119894" r="0.16" fill="#A12168"/>
<circle cx="34.5" cy="15.588457268119894" r="0.16" fill="#A12168"/>
<circle cx="35.5" cy="15.588457268119894" r="0.16" fill="#A12168"/>
<circle cx="36.5" cy="15.588457268119894" r="0.16" fill="#A12168"/>
<circle cx="37.5" cy="15.588457268119894" r="0.16" fill="#A12168"/>
<circle cx="38.5" cy="15.588457268119894" r="0.16" fill="#A12168"/>
<circle cx="39.5" cy="15.588457268119894" r="0.16" fill="#A12168"/>
<circle cx="40.5" cy="15.588457268119894" r="0.16" fill="#A12168"/>
<circle cx="41.5" cy="15.588457268119894" r="0.16" fill="#A12168"/>
<circle cx="42.5" cy="15.588457268119894" r="0.16" fill="#A12168"/>
<circle cx="43.5" cy="15.588457268119894" r="0.16" fill="#A12168"/>
<circle cx="45.5" cy="15.588457268119894" r="0.16" fill="#A12168"/>
<circle cx="46.5" cy="15.588457268119894" r="0.16" fill="#A12168"/>
<circle cx="49.5" cy="15.588457268119894" r="0.16" fill="#A12168"/>
<circle cx="50.5" cy="15.588457268119894" r="0.16" fill="#A12168"/>
<circle cx="51.5" cy="15.588457268119894" r="0.16" fill="#A12168"/>
<circle cx="52.5" cy="15.588457268119894" r="0.16" fill="#A12168"/>
<circle cx="53.5" cy="15.588457268119894" r="0.16" fill="#A12168"/>
<circle cx="54.5" cy="15.588457268119894" r="0.16" fill="#A12168"/>
<circle cx="55.5" cy="15.588457268119894" r="0.16" fill="#A12168"/>
<circle cx="56.5" cy="15.588457268119894" r="0.16" fill="#A12168"/>
<circle cx="57.5" cy="15.588457268119894" r="0.16" fill="#A12168"/>
<circle cx="58.5" cy="15.588457268119894" r="0.16" fill="#A12168"/>
<circle cx="59.5" cy="15.588457268119894" r="0.16" fill="#A12168"/>
<circle cx="60.5" cy="15.588457268119894" r="0.16" fill="#A12168"/>
<circle cx="61.5" cy="15.588457268119894" r="0.16" fill="#A12168"/>
<circle cx="16" cy="16.454482671904334" r="0.16" fill="#A12168"/>
<circle cx="21" cy="16.454482671904334" r="0.16" fill="#A12168"/>
<circle cx="34" cy="16.454482671904334" r="0.16" fill="#A12168"/>
<circle cx="35" cy="16.454482671904334" r="0.16" fill="#A12168"/>
<circle cx="36" cy="16.454482671904334" r="0.16" fill="#A12168"/>
<circle cx="37" cy="16.454482671904334" r="0.16" fill="#A12168"/>
<circle cx="38" cy="16.454482671904334" r="0.16" fill="#A12168"/>
<circle cx="39" cy="16.454482671904334" r="0.16" fill="#A12168"/>
<circle cx="40" cy="16.454482671904334" r="0.16" fill="#A12168"/>
<circle cx="41" cy="16.454482671904334" r="0.16" fill="#A12168"/>
<circle cx="42" cy="16.454482671904334" r="0.16" fill="#A12168"/>
<circle cx="43" cy="16.454482671904334" r="0.16" fill="#A12168"/>
<circle cx="44" cy="16.454482671904334" r="0.16" fill="#A12168"/>
<circle cx="46" cy="16.454482671904334" r="0.16" fill="#A12168"/>
<circle cx="47" cy="16.454482671904334" r="0.16" fill="#A12168"/>
<circle cx="48" cy="16.454482671904334" r="0.16" fill="#A12168"/>
<circle cx="49" cy="16.454482671904334" r="0.16" fill="#A12168"/>
<circle cx="52" cy="16.454482671904334" r="0.16" fill="#A12168"/>
<circle cx="53" cy="16.454482671904334" r="0.16" fill="#A12168"/>
<circle cx="54" cy="16.454482671904334" r="0.16" fill="#A12168"/>
<circle cx="55" cy="16.454482671904334" r="0.16" fill="#A12168"/>
<circle cx="57" cy="16.454482671904334" r="0.16" fill="#A12168"/>
<circle cx="58" cy="16.454482671904334" r="0.16" fill="#A12168"/>
<circle cx="59" cy="16.454482671904334" r="0.16" fill="#A12168"/>
<circle cx="60" cy="16.454482671904334" r="0.16" fill="#A12168"/>
<circle cx="16.5" cy="17.32050807568877" r="0.16" fill="#A12168"/>
<circle cx="17.5" cy="17.32050807568877" r="0.16" fill="#A12168"/>
<circle cx="18.5" cy="17.32050807568877" r="0.16" fill="#A12168"/>
<circle cx="34.5" cy="17.32050807568877" r="0.16" fill="#A12168"/>
<circle cx="35.5" cy="17.32050807568877" r="0.16" fill="#A12168"/>
<circle cx="36.5" cy="17.32050807568877" r="0.16" fill="#A12168"/>
<circle cx="37.5" cy="17.32050807568877" r="0.16" fill="#A12168"/>
<circle cx="38.5" cy="17.32050807568877" r="0.16" fill="#A12168"/>
<circle cx="39.5" cy="17.32050807568877" r="0.16" fill="#A12168"/>
<circle cx="40.5" cy="17.32050807568877" r="0.16" fill="#A12168"/>
<circle cx="41.5" cy="17.32050807568877" r="0.16" fill="#A12168"/>
<circle cx="42.5" cy="17.32050807568877" r="0.16" fill="#A12168"/>
<circle cx="43.5" cy="17.32050807568877" r="0.16" fill="#A12168"/>
<circle cx="44.5" cy="17.32050807568877" r="0.16" fill="#A12168"/>
<circle cx="46.5" cy="17.32050807568877" r="0.16" fill="#A12168"/>
<circle cx="47.5" cy="17.32050807568877" r="0.16" fill="#A12168"/>
<circle cx="52.5" cy="17.32050807568877" r="0.16" fill="#A12168"/>
<circle cx="53.5" cy="17.32050807568877" r="0.16" fill="#A12168"/>
<circle cx="57.5" cy="17.32050807568877" r="0.16" fill="#A12168"/>
<circle cx="58.5" cy="17.32050807568877" r="0.16" fill="#A12168"/>
<circle cx="19" cy="18.186533479473212" r="0.16" fill="#A12168"/>
<circle cx="34" cy="18.186533479473212" r="0.16" fill="#A12168"/>
<circle cx="35" cy="18.186533479473212" r="0.16" fill="#A12168"/>
<circle cx="36" cy="18.186533479473212" r="0.16" fill="#A12168"/>
<circle cx="37" cy="18.186533479473212" r="0.16" fill="#A12168"/>
<circle cx="38" cy="18.186533479473212" r="0.16" fill="#A12168"/>
<circle cx="39" cy="18.186533479473212" r="0.16" fill="#A12168"/>
<circle cx="40" cy="18.186533479473212" r="0.16" fill="#A12168"/>
<circle cx="41" cy="18.186533479473212" r="0.16" fill="#A12168"/>
<circle cx="42" cy="18.186533479473212" r="0.16" fill="#A12168"/>
<circle cx="43" cy="18.186533479473212" r="0.16" fill="#A12168"/>
<circle cx="44" cy="18.186533479473212" r="0.16" fill="#A12168"/>
<circle cx="45" cy="18.186533479473212" r="0.16" fill="#A12168"/>
<circle cx="46" cy="18.186533479473212" r="0.16" fill="#A12168"/>
<circle cx="53" cy="18.186533479473212" r="0.16" fill="#A12168"/>
<circle cx="58" cy="18.186533479473212" r="0.16" fill="#A12168"/>
<circle cx="59" cy="18.186533479473212" r="0.16" fill="#A12168"/>
<circle cx="62" cy="18.186533479473212" r="0.16" fill="#A12168"/>
<circle cx="21.5" cy="19.05255888325765" r="0.16" fill="#A12168"/>
<circle cx="22.5" cy="19.05255888325765" r="0.16" fill="#A12168"/>
<circle cx="23.5" cy="19.05255888325765" r="0.16" fill="#A12168"/>
<circle cx="34.5" cy="19.05255888325765" r="0.16" fill="#A12168"/>
<circle cx="35.5" cy="19.05255888325765" r="0.16" fill="#A12168"/>
<circle cx="36.5" cy="19.05255888325765" r="0.16" fill="#A12168"/>
<circle cx="37.5" cy="19.05255888325765" r="0.16" fill="#A12168"/>
<circle cx="38.5" cy="19.05255888325765" r="0.16" fill="#A12168"/>
<circle cx="39.5" cy="19.05255888325765" r="0.16" fill="#A12168"/>
<circle cx="40.5" cy="19.05255888325765" r="0.16" fill="#A12168"/>
<circle cx="41.5" cy="19.05255888325765" r="0.16" fill="#A12168"/>
<circle cx="42.5" cy="19.05255888325765" r="0.16" fill="#A12168"/>
<circle cx="43.5" cy="19.05255888325765" r="0.16" fill="#A12168"/>
<circle cx="44.5" cy="19.05255888325765" r="0.16" fill="#A12168"/>
<circle cx="45.5" cy="19.05255888325765" r="0.16" fill="#A12168"/>
<circle cx="57.5" cy="19.05255888325765" r="0.16" fill="#A12168"/>
<circle cx="61.5" cy="19.05255888325765" r="0.16" fill="#A12168"/>
<circle cx="62.5" cy="19.05255888325765" r="0.16" fill="#A12168"/>
<circle cx="21" cy="19.918584287042087" r="0.16" fill="#A12168"/>
<circle cx="22" cy="19.918584287042087" r="0.16" fill="#A12168"/>
<circle cx="23" cy="19.918584287042087" r="0.16" fill="#A12168"/>
<circle cx="24" cy="19.918584287042087" r="0.16" fill="#A12168"/>
<circle cx="25" cy="19.918584287042087" r="0.16" fill="#A12168"/>
<circle cx="26" cy="19.918584287042087" r="0.16" fill="#A12168"/>
<circle cx="35" cy="19.918584287042087" r="0.16" fill="#A12168"/>
<circle cx="36" cy="19.918584287042087" r="0.16" fill="#A12168"/>
<circle cx="39" cy="19.918584287042087" r="0.16" fill="#A12168"/>
<circle cx="40" cy="19.918584287042087" r="0.16" fill="#A12168"/>
<circle cx="41" cy="19.918584287042087" r="0.16" fill="#A12168"/>
<circle cx="42" cy="19.918584287042087" r="0.16" fill="#A12168"/>
<circle cx="43" cy="19.918584287042087" r="0.16" fill="#A12168"/>
<circle cx="44" cy="19.918584287042087" r="0.16" fill="#A12168"/>
<circle cx="45" cy="19.918584287042087" r="0.16" fill="#A12168"/>
<circle cx="46" cy="19.918584287042087" r="0.16" fill="#A12168"/>
<circle cx="47" cy="19.918584287042087" r="0.16" fill="#A12168"/>
<circle cx="58" cy="19.918584287042087" r="0.16" fill="#A12168"/>
<circle cx="61" cy="19.918584287042087" r="0.16" fill="#A12168"/>
<circle cx="21.5" cy="20.784609690826528" r="0.16" fill="#A12168"/>
<circle cx="22.5" cy="20.784609690826528" r="0.16" fill="#A12168"/>
<circle cx="23.5" cy="20.784609690826528" r="0.16" fill="#A12168"/>
<circle cx="24.5" cy="20.784609690826528" r="0.16" fill="#A12168"/>
<circle cx="25.5" cy="20.784609690826528" r="0.16" fill="#A12168"/>
<circle cx="26.5" cy="20.784609690826528" r="0.16" fill="#A12168"/>
<circle cx="39.5" cy="20.784609690826528" r="0.16" fill="#A12168"/>
<circle cx="40.5" cy="20.784609690826528" r="0.16" fill="#A12168"/>
<circle cx="41.5" cy="20.784609690826528" r="0.16" fill="#A12168"/>
<circle cx="42.5" cy="20.784609690826528" r="0.16" fill="#A12168"/>
<circle cx="43.5" cy="20.784609690826528" r="0.16" fill="#A12168"/>
<circle cx="44.5" cy="20.784609690826528" r="0.16" fill="#A12168"/>
<circle cx="45.5" cy="20.784609690826528" r="0.16" fill="#A12168"/>
<circle cx="57.5" cy="20.784609690826528" r="0.16" fill="#A12168"/>
<circle cx="58.5" cy="20.784609690826528" r="0.16" fill="#A12168"/>
<circle cx="60.5" cy="20.784609690826528" r="0.16" fill="#A12168"/>
<circle cx="61.5" cy="20.784609690826528" r="0.16" fill="#A12168"/>
<circle cx="63.5" cy="20.784609690826528" r="0.16" fill="#A12168"/>
<circle cx="21" cy="21.650635094610966" r="0.16" fill="#A12168"/>
<circle cx="22" cy="21.650635094610966" r="0.16" fill="#A12168"/>
<circle cx="23" cy="21.650635094610966" r="0.16" fill="#A12168"/>
<circle cx="24" cy="21.650635094610966" r="0.16" fill="#A12168"/>
<circle cx="25" cy="21.650635094610966" r="0.16" fill="#A12168"/>
<circle cx="26" cy="21.650635094610966" r="0.16" fill="#A12168"/>
<circle cx="27" cy="21.650635094610966" r="0.16" fill="#A12168"/>
<circle cx="28" cy="21.650635094610966" r="0.16" fill="#A12168"/>
<circle cx="40" cy="21.650635094610966" r="0.16" fill="#A12168"/>
<circle cx="41" cy="21.650635094610966" r="0.16" fill="#A12168"/>
<circle cx="42" cy="21.650635094610966" r="0.16" fill="#A12168"/>
<circle cx="43" cy="21.650635094610966" r="0.16" fill="#A12168"/>
<circle cx="44" cy="21.650635094610966" r="0.16" fill="#A12168"/>
<circle cx="45" cy="21.650635094610966" r="0.16" fill="#A12168"/>
<circle cx="58" cy="21.650635094610966" r="0.16" fill="#A12168"/>
<circle cx="60" cy="21.650635094610966" r="0.16" fill="#A12168"/>
<circle cx="61" cy="21.650635094610966" r="0.16" fill="#A12168"/>
<circle cx="66" cy="21.650635094610966" r="0.16" fill="#A12168"/>
<circle cx="20.5" cy="22.516660498395403" r="0.16" fill="#A12168"/>
<circle cx="21.5" cy="22.516660498395403" r="0.16" fill="#A12168"/>
<circle cx="22.5" cy="22.516660498395403" r="0.16" fill="#A12168"/>
<circle cx="23.5" cy="22.516660498395403" r="0.16" fill="#A12168"/>
<circle cx="24.5" cy="22.516660498395403" r="0.16" fill="#A12168"/>
<circle cx="25.5" cy="22.516660498395403" r="0.16" fill="#A12168"/>
<circle cx="26.5" cy="22.516660498395403" r="0.16" fill="#A12168"/>
<circle cx="27.5" cy="22.516660498395403" r="0.16" fill="#A12168"/>
<circle cx="28.5" cy="22.516660498395403" r="0.16" fill="#A12168"/>
<circle cx="29.5" cy="22.516660498395403" r="0.16" fill="#A12168"/>
<circle cx="40.5" cy="22.516660498395403" r="0.16" fill="#A12168"/>
<circle cx="41.5" cy="22.516660498395403" r="0.16" fill="#A12168"/>
<circle cx="42.5" cy="22.516660498395403" r="0.16" fill="#A12168"/>
<circle cx="43.5" cy="22.516660498395403" r="0.16" fill="#A12168"/>
<circle cx="44.5" cy="22.516660498395403" r="0.16" fill="#A12168"/>
<circle cx="59.5" cy="22.516660498395403" r="0.16" fill="#A12168"/>
<circle cx="66.5" cy="22.516660498395403" r="0.16" fill="#A12168"/>
<circle cx="69.5" cy="22.516660498395403" r="0.16" fill="#A12168"/>
<circle cx="21" cy="23.38268590217984" r="0.16" fill="#A12168"/>
<circle cx="22" cy="23.38268590217984" r="0.16" fill="#A12168"/>
<circle cx="23" cy="23.38268590217984" r="0.16" fill="#A12168"/>
<circle cx="24" cy="23.38268590217984" r="0.16" fill="#A12168"/>
<circle cx="25" cy="23.38268590217984" r="0.16" fill="#A12168"/>
<circle cx="26" cy="23.38268590217984" r="0.16" fill="#A12168"/>
<circle cx="27" cy="23.38268590217984" r="0.16" fill="#A12168"/>
<circle cx="28" cy="23.38268590217984" r="0.16" fill="#A12168"/>
<circle cx="29" cy="23.38268590217984" r="0.16" fill="#A12168"/>
<circle cx="40" cy="23.38268590217984" r="0.16" fill="#A12168"/>
<circle cx="41" cy="23.38268590217984" r="0.16" fill="#A12168"/>
<circle cx="42" cy="23.38268590217984" r="0.16" fill="#A12168"/>
<circle cx="43" cy="23.38268590217984" r="0.16" fill="#A12168"/>
<circle cx="44" cy="23.38268590217984" r="0.16" fill="#A12168"/>
<circle cx="45" cy="23.38268590217984" r="0.16" fill="#A12168"/>
<circle cx="21.5" cy="24.24871130596428" r="0.16" fill="#A12168"/>
<circle cx="22.5" cy="24.24871130596428" r="0.16" fill="#A12168"/>
<circle cx="23.5" cy="24.24871130596428" r="0.16" fill="#A12168"/>
<circle cx="24.5" cy="24.24871130596428" r="0.16" fill="#A12168"/>
<circle cx="25.5" cy="24.24871130596428" r="0.16" fill="#A12168"/>
<circle cx="26.5" cy="24.24871130596428" r="0.16" fill="#A12168"/>
<circle cx="27.5" cy="24.24871130596428" r="0.16" fill="#A12168"/>
<circle cx="28.5" cy="24.24871130596428" r="0.16" fill="#A12168"/>
<circle cx="39.5" cy="24.24871130596428" r="0.16" fill="#A12168"/>
<circle cx="40.5" cy="24.24871130596428" r="0.16" fill="#A12168"/>
<circle cx="41.5" cy="24.24871130596428" r="0.16" fill="#A12168"/>
<circle cx="42.5" cy="24.24871130596428" r="0.16" fill="#A12168"/>
<circle cx="43.5" cy="24.24871130596428" r="0.16" fill="#A12168"/>
<circle cx="44.5" cy="24.24871130596428" r="0.16" fill="#A12168"/>
<circle cx="63.5" cy="24.24871130596428" r="0.16" fill="#A12168"/>
<circle cx="64.5" cy="24.24871130596428" r="0.16" fill="#A12168"/>
<circle cx="66.5" cy="24.24871130596428" r="0.16" fill="#A12168"/>
<circle cx="71.5" cy="24.24871130596428" r="0.16" fill="#A12168"/>
<circle cx="23" cy="25.11473670974872" r="0.16" fill="#A12168"/>
<circle cx="24" cy="25.11473670974872" r="0.16" fill="#A12168"/>
<circle cx="25" cy="25.11473670974872" r="0.16" fill="#A12168"/>
<circle cx="26" cy="25.11473670974872" r="0.16" fill="#A12168"/>
<circle cx="27" cy="25.11473670974872" r="0.16" fill="#A12168"/>
<circle cx="28" cy="25.11473670974872" r="0.16" fill="#A12168"/>
<circle cx="40" cy="25.11473670974872" r="0.16" fill="#A12168"/>
<circle cx="41" cy="25.11473670974872" r="0.16" fill="#A12168"/>
<circle cx="42" cy="25.11473670974872" r="0.16" fill="#A12168"/>
<circle cx="43" cy="25.11473670974872" r="0.16" fill="#A12168"/>
<circle cx="44" cy="25.11473670974872" r="0.16" fill="#A12168"/>
<circle cx="47" cy="25.11473670974872" r="0.16" fill="#A12168"/>
<circle cx="63" cy="25.11473670974872" r="0.16" fill="#A12168"/>
<circle cx="64" cy="25.11473670974872" r="0.16" fill="#A12168"/>
<circle cx="65" cy="25.11473670974872" r="0.16" fill="#A12168"/>
<circle cx="66" cy="25.11473670974872" r="0.16" fill="#A12168"/>
<circle cx="67" cy="25.11473670974872" r="0.16" fill="#A12168"/>
<circle cx="22.5" cy="25.980762113533157" r="0.16" fill="#A12168"/>
<circle cx="23.5" cy="25.980762113533157" r="0.16" fill="#A12168"/>
<circle cx="24.5" cy="25.980762113533157" r="0.16" fill="#A12168"/>
<circle cx="25.5" cy="25.980762113533157" r="0.16" fill="#A12168"/>
<circle cx="26.5" cy="25.980762113533157" r="0.16" fill="#A12168"/>
<circle cx="27.5" cy="25.980762113533157" r="0.16" fill="#A12168"/>
<circle cx="40.5" cy="25.980762113533157" r="0.16" fill="#A12168"/>
<circle cx="41.5" cy="25.980762113533157" r="0.16" fill="#A12168"/>
<circle cx="42.5" cy="25.980762113533157" r="0.16" fill="#A12168"/>
<circle cx="43.5" cy="25.980762113533157" r="0.16" fill="#A12168"/>
<circle cx="46.5" cy="25.980762113533157" r="0.16" fill="#A12168"/>
<circle cx="61.5" cy="25.980762113533157" r="0.16" fill="#A12168"/>
<circle cx="62.5" cy="25.980762113533157" r="0.16" fill="#A12168"/>
<circle cx="63.5" cy="25.980762113533157" r="0.16" fill="#A12168"/>
<circle cx="64.5" cy="25.980762113533157" r="0.16" fill="#A12168"/>
<circle cx="65.5" cy="25.980762113533157" r="0.16" fill="#A12168"/>
<circle cx="66.5" cy="25.980762113533157" r="0.16" fill="#A12168"/>
<circle cx="67.5" cy="25.980762113533157" r="0.16" fill="#A12168"/>
<circle cx="23" cy="26.846787517317598" r="0.16" fill="#A12168"/>
<circle cx="24" cy="26.846787517317598" r="0.16" fill="#A12168"/>
<circle cx="25" cy="26.846787517317598" r="0.16" fill="#A12168"/>
<circle cx="26" cy="26.846787517317598" r="0.16" fill="#A12168"/>
<circle cx="41" cy="26.846787517317598" r="0.16" fill="#A12168"/>
<circle cx="42" cy="26.846787517317598" r="0.16" fill="#A12168"/>
<circle cx="43" cy="26.846787517317598" r="0.16" fill="#A12168"/>
<circle cx="61" cy="26.846787517317598" r="0.16" fill="#A12168"/>
<circle cx="62" cy="26.846787517317598" r="0.16" fill="#A12168"/>
<circle cx="63" cy="26.846787517317598" r="0.16" fill="#A12168"/>
<circle cx="64" cy="26.846787517317598" r="0.16" fill="#A12168"/>
<circle cx="65" cy="26.846787517317598" r="0.16" fill="#A12168"/>
<circle cx="66" cy="26.846787517317598" r="0.16" fill="#A12168"/>
<circle cx="67" cy="26.846787517317598" r="0.16" fill="#A12168"/>
<circle cx="68" cy="26.846787517317598" r="0.16" fill="#A12168"/>
<circle cx="22.5" cy="27.712812921102035" r="0.16" fill="#A12168"/>
<circle cx="23.5" cy="27.712812921102035" r="0.16" fill="#A12168"/>
<circle cx="24.5" cy="27.712812921102035" r="0.16" fill="#A12168"/>
<circle cx="25.5" cy="27.712812921102035" r="0.16" fill="#A12168"/>
<circle cx="26.5" cy="27.712812921102035" r="0.16" fill="#A12168"/>
<circle cx="41.5" cy="27.712812921102035" r="0.16" fill="#A12168"/>
<circle cx="42.5" cy="27.712812921102035" r="0.16" fill="#A12168"/>
<circle cx="61.5" cy="27.712812921102035" r="0.16" fill="#A12168"/>
<circle cx="62.5" cy="27.712812921102035" r="0.16" fill="#A12168"/>
<circle cx="63.5" cy="27.712812921102035" r="0.16" fill="#A12168"/>
<circle cx="64.5" cy="27.712812921102035" r="0.16" fill="#A12168"/>
<circle cx="65.5" cy="27.712812921102035" r="0.16" fill="#A12168"/>
<circle cx="66.5" cy="27.712812921102035" r="0.16" fill="#A12168"/>
<circle cx="67.5" cy="27.712812921102035" r="0.16" fill="#A12168"/>
<circle cx="68.5" cy="27.712812921102035" r="0.16" fill="#A12168"/>
<circle cx="23" cy="28.578838324886473" r="0.16" fill="#A12168"/>
<circle cx="24" cy="28.578838324886473" r="0.16" fill="#A12168"/>
<circle cx="41" cy="28.578838324886473" r="0.16" fill="#A12168"/>
<circle cx="61" cy="28.578838324886473" r="0.16" fill="#A12168"/>
<circle cx="65" cy="28.578838324886473" r="0.16" fill="#A12168"/>
<circle cx="66" cy="28.578838324886473" r="0.16" fill="#A12168"/>
<circle cx="67" cy="28.578838324886473" r="0.16" fill="#A12168"/>
<circle cx="68" cy="28.578838324886473" r="0.16" fill="#A12168"/>
<circle cx="22.5" cy="29.444863728670914" r="0.16" fill="#A12168"/>
<circle cx="23.5" cy="29.444863728670914" r="0.16" fill="#A12168"/>
<circle cx="24.5" cy="29.444863728670914" r="0.16" fill="#A12168"/>
<circle cx="66.5" cy="29.444863728670914" r="0.16" fill="#A12168"/>
<circle cx="67.5" cy="29.444863728670914" r="0.16" fill="#A12168"/>
<circle cx="22" cy="30.31088913245535" r="0.16" fill="#A12168"/>
<circle cx="23" cy="30.31088913245535" r="0.16" fill="#A12168"/>
<circle cx="24" cy="30.31088913245535" r="0.16" fill="#A12168"/>
<circle cx="67" cy="30.31088913245535" r="0.16" fill="#A12168"/>
<circle cx="22.5" cy="31.17691453623979" r="0.16" fill="#A12168"/>
<circle cx="23.5" cy="31.17691453623979" r="0.16" fill="#A12168"/>
<circle cx="22" cy="32.042939940024226" r="0.16" fill="#A12168"/>
<circle cx="23" cy="32.042939940024226" r="0.16" fill="#A12168"/>
<circle cx="21.5" cy="32.90896534380867" r="0.16" fill="#A12168"/>
<circle cx="22.5" cy="32.90896534380867" r="0.16" fill="#A12168"/>
<circle cx="22" cy="33.77499074759311" r="0.16" fill="#A12168"/>
<circle cx="22.5" cy="34.64101615137754" r="0.16" fill="#A12168"/>
</g>
</g></svg>