<!-- public/icons/erp.svg -->
<svg width="24" height="24" viewBox="0 0 24 24" fill="none" xmlns="http://www.w3.org/2000/svg">
  <path d="M4 19.5C4 18.837 4.26339 18.2011 4.73223 17.7322C5.20107 17.2634 5.83696 17 6.5 17H17.5C18.163 17 18.7989 17.2634 19.2678 17.7322C19.7366 18.2011 20 18.837 20 19.5C20 20.163 19.7366 20.7989 19.2678 21.2678C18.7989 21.7366 18.163 22 17.5 22H6.5C5.83696 22 5.20107 21.7366 4.73223 21.2678C4.26339 20.7989 4 20.163 4 19.5Z" stroke="currentColor" stroke-width="2"/>
  <path d="M16 17V3C16 2.46957 15.7893 1.96086 15.4142 1.58579C15.0391 1.21071 14.5304 1 14 1H10C9.46957 1 8.96086 1.21071 8.58579 1.58579C8.21071 1.96086 8 2.46957 8 3V17" stroke="currentColor" stroke-width="2"/>
</svg>