<!-- public/icons/rocket.svg -->
<svg width="24" height="24" viewBox="0 0 24 24" fill="none" xmlns="http://www.w3.org/2000/svg">
  <path d="M12 15L9 12M12 15C13.3968 14.4687 14.7369 13.7987 16 13M12 15V19C12 19 15.03 18.45 16 17C17.08 15.38 16 13 16 13M9 12C9.53125 10.6032 10.2013 9.26314 11 8M9 12H5C5 12 5.55 8.97 7 8C8.62 6.92 11 8 11 8M16 13C18.2 13.2 21 11 21 11C21 11 18.8 8.8 18 6.5C16.5 3 12 3 12 3C12 3 8.5 3.5 6 5C3.2 5.8 3 8 3 8C3 8 5.2 10.8 5.5 13" stroke="currentColor" stroke-width="2" stroke-linecap="round" stroke-linejoin="round"/>
</svg>